<svg xmlns="http://www.w3.org/2000/svg" fill="none" viewBox="0 0 96 96" id="Book"><path stroke="#414962" stroke-width="5" d="M21 19C21 14.0294 25.0294 10 30 10H55H75C76.6569 10 78 11.3431 78 13V44V83.5C78 85.1569 76.6569 86.5 75 86.5H30C25.0294 86.5 21 82.4706 21 77.5V19Z" class="colorStroke000000 svgStroke"></path><path stroke="#414962" stroke-width="5" d="M78 76.4444V68H55 30C25.0294 68 21 72.0294 21 77V77.5C21 82.4706 25.0294 86.5 30 86.5H69M35 10L35.1656 31.67C35.1732 32.6617 36.4643 33.0387 37.0043 32.2069L41.918 24.6379C42.7065 23.4233 44.4845 23.4233 45.273 24.6379L50.1612 32.1676C50.7034 33.0028 52 32.6188 52 31.6231L52 10 35 10z" class="colorStroke000000 svgStroke"></path><path stroke="#414962" stroke-linecap="round" stroke-width="5" d="M52 77L76 77" class="colorStroke000000 svgStroke"></path></svg>