<svg xmlns="http://www.w3.org/2000/svg" fill="none" viewBox="0 0 96 96" id="reading"><path fill="#414962" fill-rule="evenodd" d="M12 12.5C10.067 12.5 8.5 14.067 8.5 16L8.5 71C8.5 72.9329 10.067 74.4999 12 74.4999H32.8681C37.4545 74.4999 41.8664 75.964 45.5 78.6019V17.9337C42.3766 14.4791 37.932 12.5 33.2612 12.5L12 12.5ZM48 13.3468C44.0328 9.61094 38.7676 7.5 33.2612 7.5L12 7.5C7.30558 7.5 3.5 11.3056 3.5 16L3.5 71C3.5 75.6944 7.30559 79.5 12 79.4999H32.8681C37.8805 79.4999 42.6212 81.7784 45.7525 85.6925L46.0478 86.0617C46.5222 86.6548 47.2405 87 48 87C48.7595 87 49.4777 86.6548 49.9522 86.0617L50.2475 85.6925C53.3788 81.7784 58.1195 79.4999 63.1319 79.4999L84 79.4999C88.6944 79.4999 92.5 75.6944 92.5 70.9999V16C92.5 11.3056 88.6944 7.50001 84 7.5L62.7388 7.5C57.2324 7.5 51.9672 9.61094 48 13.3468ZM50.5 17.9337V78.6019C54.1336 75.964 58.5455 74.4999 63.1319 74.4999L84 74.4999C85.933 74.4999 87.5 72.9329 87.5 70.9999V16C87.5 14.067 85.933 12.5 84 12.5L62.7388 12.5C58.068 12.5 53.6234 14.4791 50.5 17.9337Z" clip-rule="evenodd" class="color12182b svgShape"></path></svg>